<svg width="170" height="44" viewBox="0 0 170 44" fill="none" xmlns="http://www.w3.org/2000/svg">
<path d="M10.77 31.36C9.35 31.36 8.07 31.14 6.93 30.7C5.79 30.24 4.82 29.57 4.02 28.69C3.22 27.79 2.6 26.68 2.16 25.36C1.72 24.02 1.5 22.46 1.5 20.68C1.5 18.92 1.72 17.36 2.16 16C2.6 14.62 3.22 13.47 4.02 12.55C4.82 11.61 5.79 10.9 6.93 10.42C8.07 9.94 9.35 9.7 10.77 9.7C12.71 9.7 14.31 10.1 15.57 10.9C16.83 11.68 17.84 12.92 18.6 14.62L14.67 16.66C14.39 15.78 13.95 15.08 13.35 14.56C12.77 14.02 11.91 13.75 10.77 13.75C9.43 13.75 8.35 14.19 7.53 15.07C6.73 15.93 6.33 17.19 6.33 18.85V22.21C6.33 23.87 6.73 25.14 7.53 26.02C8.35 26.88 9.43 27.31 10.77 27.31C11.89 27.31 12.78 27.01 13.44 26.41C14.12 25.79 14.62 25.05 14.94 24.19L18.66 26.35C17.88 27.95 16.85 29.19 15.57 30.07C14.31 30.93 12.71 31.36 10.77 31.36ZM28.001 31.36C26.841 31.36 25.801 31.17 24.881 30.79C23.981 30.41 23.211 29.86 22.571 29.14C21.951 28.42 21.471 27.55 21.131 26.53C20.791 25.51 20.621 24.37 20.621 23.11C20.621 21.85 20.791 20.71 21.131 19.69C21.471 18.67 21.951 17.81 22.571 17.11C23.211 16.39 23.981 15.84 24.881 15.46C25.801 15.08 26.841 14.89 28.001 14.89C29.161 14.89 30.191 15.08 31.091 15.46C32.011 15.84 32.781 16.39 33.401 17.11C34.041 17.81 34.531 18.67 34.871 19.69C35.211 20.71 35.381 21.85 35.381 23.11C35.381 24.37 35.211 25.51 34.871 26.53C34.531 27.55 34.041 28.42 33.401 29.14C32.781 29.86 32.011 30.41 31.091 30.79C30.191 31.17 29.161 31.36 28.001 31.36ZM28.001 27.85C28.881 27.85 29.561 27.58 30.041 27.04C30.521 26.5 30.761 25.73 30.761 24.73V21.52C30.761 20.52 30.521 19.75 30.041 19.21C29.561 18.67 28.881 18.4 28.001 18.4C27.121 18.4 26.441 18.67 25.961 19.21C25.481 19.75 25.241 20.52 25.241 21.52V24.73C25.241 25.73 25.481 26.5 25.961 27.04C26.441 27.58 27.121 27.85 28.001 27.85ZM48.2046 28.36H48.0546C47.9346 28.78 47.7446 29.18 47.4846 29.56C47.2246 29.92 46.9046 30.24 46.5246 30.52C46.1646 30.78 45.7446 30.98 45.2646 31.12C44.8046 31.28 44.3246 31.36 43.8246 31.36C41.8246 31.36 40.3146 30.66 39.2946 29.26C38.2746 27.84 37.7646 25.79 37.7646 23.11C37.7646 20.43 38.2746 18.39 39.2946 16.99C40.3146 15.59 41.8246 14.89 43.8246 14.89C44.8446 14.89 45.7446 15.17 46.5246 15.73C47.3246 16.29 47.8346 17.01 48.0546 17.89H48.2046V8.8H52.6446V31H48.2046V28.36ZM45.2946 27.76C46.1346 27.76 46.8246 27.56 47.3646 27.16C47.9246 26.74 48.2046 26.17 48.2046 25.45V20.8C48.2046 20.08 47.9246 19.52 47.3646 19.12C46.8246 18.7 46.1346 18.49 45.2946 18.49C44.4546 18.49 43.7546 18.79 43.1946 19.39C42.6546 19.97 42.3846 20.76 42.3846 21.76V24.49C42.3846 25.49 42.6546 26.29 43.1946 26.89C43.7546 27.47 44.4546 27.76 45.2946 27.76ZM63.3666 31.36C62.1666 31.36 61.0966 31.17 60.1566 30.79C59.2166 30.39 58.4166 29.84 57.7566 29.14C57.1166 28.42 56.6266 27.55 56.2866 26.53C55.9666 25.51 55.8066 24.37 55.8066 23.11C55.8066 21.87 55.9666 20.75 56.2866 19.75C56.6066 18.73 57.0766 17.86 57.6966 17.14C58.3366 16.42 59.1166 15.87 60.0366 15.49C60.9566 15.09 62.0066 14.89 63.1866 14.89C64.4866 14.89 65.5966 15.11 66.5166 15.55C67.4566 15.99 68.2166 16.58 68.7966 17.32C69.3966 18.06 69.8266 18.92 70.0866 19.9C70.3666 20.86 70.5066 21.87 70.5066 22.93V24.25H60.3966V24.49C60.3966 25.53 60.6766 26.36 61.2366 26.98C61.7966 27.58 62.6766 27.88 63.8766 27.88C64.7966 27.88 65.5466 27.7 66.1266 27.34C66.7066 26.96 67.2466 26.51 67.7466 25.99L69.9666 28.75C69.2666 29.57 68.3466 30.21 67.2066 30.67C66.0866 31.13 64.8066 31.36 63.3666 31.36ZM63.2766 18.16C62.3766 18.16 61.6666 18.46 61.1466 19.06C60.6466 19.64 60.3966 20.42 60.3966 21.4V21.64H65.9166V21.37C65.9166 20.41 65.6966 19.64 65.2566 19.06C64.8366 18.46 64.1766 18.16 63.2766 18.16Z" fill="#1B1B1B"/>
<path d="M87.1723 27.67H87.0223C86.8623 28.73 86.3223 29.61 85.4023 30.31C84.4823 31.01 83.2323 31.36 81.6523 31.36C80.4523 31.36 79.3323 31.13 78.2923 30.67C77.2523 30.21 76.3423 29.53 75.5623 28.63C74.7823 27.73 74.1723 26.61 73.7323 25.27C73.2923 23.93 73.0723 22.38 73.0723 20.62C73.0723 18.86 73.3023 17.3 73.7623 15.94C74.2223 14.58 74.8623 13.44 75.6823 12.52C76.5223 11.6 77.5223 10.9 78.6823 10.42C79.8423 9.94 81.1323 9.7 82.5523 9.7C84.4323 9.7 86.0523 10.11 87.4123 10.93C88.7723 11.73 89.8423 12.94 90.6223 14.56L86.9023 16.69C86.5823 15.87 86.0823 15.18 85.4023 14.62C84.7223 14.04 83.7723 13.75 82.5523 13.75C81.1323 13.75 80.0023 14.16 79.1623 14.98C78.3223 15.8 77.9023 17.09 77.9023 18.85V22.21C77.9023 23.95 78.3223 25.24 79.1623 26.08C80.0023 26.9 81.1323 27.31 82.5523 27.31C83.1123 27.31 83.6423 27.25 84.1423 27.13C84.6423 26.99 85.0823 26.79 85.4623 26.53C85.8423 26.25 86.1323 25.92 86.3323 25.54C86.5523 25.16 86.6623 24.71 86.6623 24.19V23.14H82.7623V19.33H91.0123V31H87.1723V27.67ZM101.775 31.36C100.575 31.36 99.5048 31.17 98.5648 30.79C97.6248 30.39 96.8248 29.84 96.1648 29.14C95.5248 28.42 95.0348 27.55 94.6948 26.53C94.3748 25.51 94.2148 24.37 94.2148 23.11C94.2148 21.87 94.3748 20.75 94.6948 19.75C95.0148 18.73 95.4848 17.86 96.1048 17.14C96.7448 16.42 97.5248 15.87 98.4448 15.49C99.3648 15.09 100.415 14.89 101.595 14.89C102.895 14.89 104.005 15.11 104.925 15.55C105.865 15.99 106.625 16.58 107.205 17.32C107.805 18.06 108.235 18.92 108.495 19.9C108.775 20.86 108.915 21.87 108.915 22.93V24.25H98.8048V24.49C98.8048 25.53 99.0848 26.36 99.6448 26.98C100.205 27.58 101.085 27.88 102.285 27.88C103.205 27.88 103.955 27.7 104.535 27.34C105.115 26.96 105.655 26.51 106.155 25.99L108.375 28.75C107.675 29.57 106.755 30.21 105.615 30.67C104.495 31.13 103.215 31.36 101.775 31.36ZM101.685 18.16C100.785 18.16 100.075 18.46 99.5548 19.06C99.0548 19.64 98.8048 20.42 98.8048 21.4V21.64H104.325V21.37C104.325 20.41 104.105 19.64 103.665 19.06C103.245 18.46 102.585 18.16 101.685 18.16ZM112.05 31V15.25H116.49V17.92H116.67C116.95 17.1 117.44 16.39 118.14 15.79C118.84 15.19 119.81 14.89 121.05 14.89C122.67 14.89 123.89 15.43 124.71 16.51C125.55 17.59 125.97 19.13 125.97 21.13V31H121.53V21.49C121.53 20.47 121.37 19.72 121.05 19.24C120.73 18.74 120.16 18.49 119.34 18.49C118.98 18.49 118.63 18.54 118.29 18.64C117.95 18.72 117.64 18.86 117.36 19.06C117.1 19.26 116.89 19.51 116.73 19.81C116.57 20.09 116.49 20.42 116.49 20.8V31H112.05ZM132.142 13.57C131.242 13.57 130.582 13.37 130.162 12.97C129.762 12.55 129.562 12.02 129.562 11.38V10.72C129.562 10.08 129.762 9.56 130.162 9.16C130.582 8.74 131.242 8.53 132.142 8.53C133.042 8.53 133.692 8.74 134.092 9.16C134.512 9.56 134.722 10.08 134.722 10.72V11.38C134.722 12.02 134.512 12.55 134.092 12.97C133.692 13.37 133.042 13.57 132.142 13.57ZM129.922 15.25H134.362V31H129.922V15.25ZM147.806 28.36H147.656C147.516 28.76 147.326 29.14 147.086 29.5C146.866 29.86 146.576 30.18 146.216 30.46C145.856 30.74 145.426 30.96 144.926 31.12C144.446 31.28 143.886 31.36 143.246 31.36C141.626 31.36 140.396 30.83 139.556 29.77C138.736 28.69 138.326 27.15 138.326 25.15V15.25H142.766V24.76C142.766 25.72 142.936 26.46 143.276 26.98C143.616 27.5 144.196 27.76 145.016 27.76C145.356 27.76 145.696 27.71 146.036 27.61C146.376 27.51 146.676 27.37 146.936 27.19C147.196 26.99 147.406 26.75 147.566 26.47C147.726 26.19 147.806 25.86 147.806 25.48V15.25H152.246V31H147.806V28.36ZM161.717 31.36C160.197 31.36 158.917 31.12 157.877 30.64C156.837 30.14 155.907 29.44 155.087 28.54L157.697 25.9C158.257 26.52 158.877 27.01 159.557 27.37C160.237 27.73 161.007 27.91 161.867 27.91C162.747 27.91 163.357 27.78 163.697 27.52C164.037 27.24 164.207 26.87 164.207 26.41C164.207 25.67 163.677 25.23 162.617 25.09L160.907 24.88C157.367 24.44 155.597 22.82 155.597 20.02C155.597 19.26 155.737 18.57 156.017 17.95C156.317 17.31 156.727 16.77 157.247 16.33C157.787 15.87 158.427 15.52 159.167 15.28C159.927 15.02 160.777 14.89 161.717 14.89C162.537 14.89 163.257 14.95 163.877 15.07C164.517 15.17 165.077 15.33 165.557 15.55C166.057 15.75 166.507 16.01 166.907 16.33C167.327 16.63 167.737 16.97 168.137 17.35L165.587 19.96C165.087 19.46 164.517 19.07 163.877 18.79C163.257 18.49 162.617 18.34 161.957 18.34C161.197 18.34 160.657 18.46 160.337 18.7C160.017 18.94 159.857 19.26 159.857 19.66C159.857 20.08 159.967 20.41 160.187 20.65C160.427 20.87 160.867 21.03 161.507 21.13L163.277 21.37C166.737 21.83 168.467 23.41 168.467 26.11C168.467 26.87 168.307 27.57 167.987 28.21C167.667 28.85 167.207 29.41 166.607 29.89C166.027 30.35 165.317 30.71 164.477 30.97C163.657 31.23 162.737 31.36 161.717 31.36Z" fill="#3BA32B"/>
</svg>
